<?xml version="1.0" encoding="UTF-8" standalone="no"?>
<svg
   xmlns:dc="http://purl.org/dc/elements/1.1/"
   xmlns:cc="http://creativecommons.org/ns#"
   xmlns:rdf="http://www.w3.org/1999/02/22-rdf-syntax-ns#"
   xmlns:svg="http://www.w3.org/2000/svg"
   xmlns="http://www.w3.org/2000/svg"
   viewBox="0 0 1122.52 793.70135"
   height="793.70135"
   width="1122.52"
   xml:space="preserve"
   id="svg2"
   version="1.1"><metadata
     id="metadata8"><rdf:RDF><cc:Work
         rdf:about=""><dc:format>image/svg+xml</dc:format><dc:type
           rdf:resource="http://purl.org/dc/dcmitype/StillImage" /></cc:Work></rdf:RDF></metadata><defs
     id="defs6"><clipPath
       id="clipPath18"
       clipPathUnits="userSpaceOnUse"><path
         id="path16"
         d="M 0,595.276 H 841.89 V 0 H 0 Z" /></clipPath><clipPath
       id="clipPath30"
       clipPathUnits="userSpaceOnUse"><path
         id="path28"
         d="M 0,595.276 H 841.89 V 0 H 0 Z" /></clipPath><clipPath
       id="clipPath42"
       clipPathUnits="userSpaceOnUse"><path
         id="path40"
         d="M 0,595.276 H 841.89 V 0 H 0 Z" /></clipPath><clipPath
       id="clipPath86"
       clipPathUnits="userSpaceOnUse"><path
         id="path84"
         d="M 0,595.276 H 841.89 V 0 H 0 Z" /></clipPath><clipPath
       id="clipPath112"
       clipPathUnits="userSpaceOnUse"><path
         id="path110"
         d="M 0,595.276 H 841.89 V 0 H 0 Z" /></clipPath><clipPath
       id="clipPath136"
       clipPathUnits="userSpaceOnUse"><path
         id="path134"
         d="M 0,595.276 H 841.89 V 0 H 0 Z" /></clipPath><clipPath
       id="clipPath168"
       clipPathUnits="userSpaceOnUse"><path
         id="path166"
         d="M 0,595.276 H 841.89 V 0 H 0 Z" /></clipPath><clipPath
       id="clipPath180"
       clipPathUnits="userSpaceOnUse"><path
         id="path178"
         d="M 0,595.276 H 841.89 V 0 H 0 Z" /></clipPath><clipPath
       id="clipPath212"
       clipPathUnits="userSpaceOnUse"><path
         id="path210"
         d="M 0,595.276 H 841.89 V 0 H 0 Z" /></clipPath><clipPath
       id="clipPath244"
       clipPathUnits="userSpaceOnUse"><path
         id="path242"
         d="M 0,595.276 H 841.89 V 0 H 0 Z" /></clipPath></defs><g
     transform="matrix(1.3333333,0,0,-1.3333333,0,793.70133)"
     id="g10"><g
       id="g12"><g
         clip-path="url(#clipPath18)"
         id="g14"><g
           transform="translate(589.4961,303.8391)"
           id="g20"><path
             id="path22"
             style="fill:#345d94;fill-opacity:1;fill-rule:nonzero;stroke:none"
             d="m 0,0 c 0,-101.081 -81.942,-183.023 -183.024,-183.023 -101.081,0 -183.024,81.942 -183.024,183.023 0,101.081 81.943,183.024 183.024,183.024 C -81.942,183.024 0,101.081 0,0" /></g></g></g><g
       id="g24"><g
         clip-path="url(#clipPath30)"
         id="g26"><g
           transform="translate(574.5781,372.487)"
           id="g32"><path
             id="path34"
             style="fill:#345d94;fill-opacity:1;fill-rule:nonzero;stroke:none"
             d="m 0,0 c 0.271,-1.527 0.448,-3.084 0.52,-4.664 0.777,-17.348 -15.321,-32.123 -32.124,-32.123 -16.606,0 -29.229,12.518 -31.708,28.114 -5.604,5.054 -9.874,11.6 -12.36,18.962 -10.527,5.294 -17.516,16.37 -18.073,28.824 -0.777,17.347 15.32,32.123 32.123,32.123 7.122,0 13.507,-2.309 18.68,-6.168 2.46,0.46 4.939,0.712 7.392,0.712 23.854,0 41.517,-19.496 42.549,-42.549 C 7.347,15.479 4.459,6.926 0,0 m 28.919,10.418 c 0.555,6.525 1.11,13.051 1.665,19.576 4.568,2.279 9.137,4.559 13.704,6.838 l -9.665,26.555 c -5.199,-0.967 -10.399,-1.934 -15.6,-2.902 -4.26,4.927 -8.521,9.853 -12.782,14.78 1.489,4.924 2.979,9.848 4.467,14.772 l -24.271,10.406 c -2.673,-4.52 -5.347,-9.04 -8.019,-13.56 -7.083,0.815 -14.165,1.63 -21.248,2.445 -2.378,4.84 -4.757,9.681 -7.136,14.521 -7.853,-2.969 -15.708,-5.939 -23.561,-8.909 1.167,-4.903 2.335,-9.807 3.502,-14.71 -5.629,-4.475 -11.259,-8.949 -16.888,-13.424 -5.485,1.088 -10.971,2.176 -16.456,3.264 -2.845,-8.284 -5.691,-16.568 -8.535,-24.852 3.95,-3.651 7.901,-7.303 11.851,-10.954 0.028,-6.005 0.054,-12.01 0.08,-18.015 -5.534,-2.168 -11.067,-4.337 -16.601,-6.505 2.949,-8.951 5.898,-17.902 8.847,-26.852 5.659,0.979 11.317,1.959 16.975,2.939 4.446,-5.013 8.893,-10.026 13.339,-15.039 -1.546,-5.499 -3.092,-10.996 -4.638,-16.494 8.618,-3.34 17.237,-6.681 25.855,-10.021 2.129,4.322 4.257,8.643 6.385,12.965 l 21.469,-0.514 c 2.231,-4.432 4.46,-8.863 6.691,-13.295 9.421,2.504 18.842,5.007 28.263,7.511 -1.387,5.51 -2.776,11.019 -4.165,16.528 4.865,4.855 9.73,9.71 14.594,14.565 4.816,-1.794 9.634,-3.588 14.45,-5.382 4.27,8.185 8.539,16.371 12.808,24.556 -5.127,3.069 -10.253,6.138 -15.38,9.207" /></g></g></g><g
       id="g36"><g
         clip-path="url(#clipPath42)"
         id="g38"><g
           transform="translate(373.6499,213.301)"
           id="g44"><path
             id="path46"
             style="fill:#e0c271;fill-opacity:1;fill-rule:nonzero;stroke:none"
             d="m 0,0 c -1.377,0.05 -2.781,0.785 -3.637,1.829 -1.871,2.283 -0.475,5.249 0.346,10.813 0.866,5.86 -0.197,5.861 0.52,10.312 1.096,6.805 4.366,11.674 5.715,13.639 1.715,2.498 6.969,10.15 16.973,13.639 12.283,4.285 23.817,-0.464 27.538,-1.996 7.877,-3.242 7.385,-5.795 17.492,-9.979 7.141,-2.958 8.107,-1.982 16.453,-5.489 8.916,-3.748 13.061,-7.068 15.933,-10.313 2.172,-2.454 5.224,-6.002 4.157,-9.647 C 101.439,12.634 100.681,10.059 98.2,8.815 95.07,7.248 91.302,8.85 89.54,9.48 78.772,13.34 63.081,9.611 54.382,4.823 50.403,2.634 47.936,0.249 44.164,0.832 40.737,1.36 40.351,3.702 35.331,5.821 32.382,7.067 29.67,7.317 24.247,7.817 18.217,8.374 15.203,8.652 12.816,7.651 9.708,6.348 5.641,3.099 4.676,2.328 3.171,1.126 1.855,-0.067 0,0" /></g><g
           transform="translate(365.2207,206.843)"
           id="g48"><path
             id="path50"
             style="fill:#e0c271;fill-opacity:1;fill-rule:nonzero;stroke:none"
             d="m 0,0 c 0.208,1.388 -0.041,2.742 -6.668,12.561 -5.147,7.626 -4.593,6.21 -5.272,7.598 -0.847,1.73 -1.612,3.733 -3.722,5.117 -0.818,0.537 -2.268,1.489 -3.412,1.086 -2.185,-0.77 -1.571,-5.892 -1.861,-15.351 -0.343,-11.228 -1.552,-15.162 1.396,-17.833 1.627,-1.475 3.669,-1.791 5.118,-2.017 5.652,-0.877 9.835,2.485 10.389,2.946 C -2.697,-4.782 -0.436,-2.902 0,0" /></g><g
           transform="translate(362.3164,222.884)"
           id="g52"><path
             id="path54"
             style="fill:#e0c271;fill-opacity:1;fill-rule:nonzero;stroke:none"
             d="m 0,0 c -0.974,-0.143 -1.562,2.107 -3.56,4.886 -3.1,4.308 -5.492,4.185 -7.98,7.509 -2.251,3.005 -2.59,6.174 -2.924,9.297 -0.364,3.394 -1.385,12.925 5.455,19.35 4.888,4.592 10.932,4.909 12.984,5.017 4.281,0.224 11.692,-0.64 12.626,-3.94 0.628,-2.223 -2.311,-3.333 -5.694,-9.91 C 8.853,28.216 9.725,28.213 7.341,23.185 4.116,16.384 2.469,16.28 2.076,12.551 1.817,10.099 2.388,8.8 1.755,4.781 1.444,2.805 1.026,0.15 0,0" /></g><g
           transform="translate(341.9268,200.1799)"
           id="g56"><path
             id="path58"
             style="fill:#e0c271;fill-opacity:1;fill-rule:nonzero;stroke:none"
             d="m 0,0 c -0.625,-0.925 -2.452,-1.095 -3.567,-0.465 -0.827,0.468 -0.817,1.226 -1.861,2.791 0,0 -0.514,0.869 -2.171,2.946 -0.459,0.576 -4.505,5.652 -9.769,5.893 -0.801,0.037 -0.441,-0.093 -7.288,-1.551 -2.7,-0.575 -4.059,-0.86 -4.497,-0.775 -3.108,0.604 -4.845,4.383 -7.443,10.234 -1.473,3.316 -2.335,5.256 -3.102,8.219 -1.329,5.133 -1.249,8.99 -0.465,24.346 0.296,5.799 0.444,8.698 0.465,8.839 0,0 1.857,11.468 17.988,27.447 0.419,0.415 1.309,1.262 2.328,1.135 1.207,-0.151 1.935,-1.583 2.462,-2.585 1.246,-2.366 3.046,-4.446 4.049,-6.923 C -8.604,69.013 -1.813,61.56 0.56,48.684 1.552,43.298 2.304,34.073 -1.551,22.02 c 0,0 -0.415,-3.685 -0.465,-9.304 C -2.048,9.153 -2.054,7.336 -1.551,5.583 -0.677,2.537 0.74,1.094 0,0" /></g><g
           transform="translate(301.8604,272.2746)"
           id="g60"><path
             id="path62"
             style="fill:#e0c271;fill-opacity:1;fill-rule:nonzero;stroke:none"
             d="m 0,0 c -2.916,0.107 -5.715,6.582 -5.815,12.338 -0.134,7.755 4.644,13.56 7.091,16.452 8.3,9.803 14.807,7.236 20.99,16.877 2.095,3.266 4.027,7.739 5.815,7.375 1.026,-0.21 1.313,-1.875 1.985,-3.546 2.078,-5.165 6.636,-7.408 9.36,-9.361 6.935,-4.97 11.256,-14.703 12.623,-19.996 3.935,-15.243 -6.53,-32.763 -11.346,-32.194 -1.309,0.155 -3.047,4.216 -6.524,12.338 -1.663,3.885 -3.446,8.379 -6.524,14.041 -3.164,5.82 -4.131,6.316 -4.822,6.524 C 17.455,22.471 9.656,12.453 7.8,10.069 2.939,3.825 2.291,-0.084 0,0" /></g><g
           transform="translate(291.9321,231.2951)"
           id="g64"><path
             id="path66"
             style="fill:#e0c271;fill-opacity:1;fill-rule:nonzero;stroke:none"
             d="m 0,0 c -2.269,-1.11 -4.419,-0.11 -6.978,0.466 -5.074,1.14 -6.095,-0.661 -14.886,-1.086 -6.005,-0.29 -9.007,-0.436 -11.631,0.465 -6.736,2.312 -9.761,9.047 -14.266,19.074 -4.245,9.45 -6.702,19.344 -3.721,21.399 0.767,0.53 1.891,0.536 3.566,1.861 1.736,1.374 1.954,2.495 2.946,3.412 2.121,1.958 5.695,1.055 9.149,0.465 8.246,-1.411 7.566,0.361 14.112,-0.931 3.947,-0.778 13.587,-2.681 20.624,-10.699 C 0.848,32.223 3.708,28.964 4.652,24.036 5.588,19.155 3.491,18.662 4.032,10.545 4.163,8.586 4.44,6.279 3.257,3.722 2.923,3 1.983,0.972 0,0" /></g><g
           transform="translate(307.6235,207.5656)"
           id="g68"><path
             id="path70"
             style="fill:#e0c271;fill-opacity:1;fill-rule:nonzero;stroke:none"
             d="m 0,0 c 0.075,1.885 -1.435,3.379 -2.098,4.017 -5.674,5.463 -8.481,8.259 -11.93,9.874 -2.429,1.136 -9.925,4.338 -20.159,3.702 -4.868,-0.302 -10.897,-0.677 -16.868,-4.731 -8.133,-5.523 -10.951,-14.34 -11.725,-17.279 -1.088,-4.137 -0.34,-5.053 -2.262,-14.811 -0.998,-5.062 -1.348,-5.571 -1.646,-8.433 -0.533,-5.121 -1.038,-9.756 1.028,-14.4 1.441,-3.237 4.725,-7.823 8.228,-11.108 1.026,-0.961 2.526,-2.238 2.88,-4.319 0.442,-2.59 -1.179,-4.436 -0.411,-5.349 0.699,-0.83 3.11,0.148 4.319,0.617 6.797,2.642 5.596,0.895 11.932,3.497 5.836,2.398 11.338,4.659 16.044,10.079 1.992,2.295 3.401,3.72 4.114,6.172 1.123,3.86 -0.615,5.618 -1.44,12.342 -0.314,2.565 -0.209,5.824 0,12.342 0.203,6.312 0.324,9.497 1.235,10.902 2.322,3.582 7.982,6.657 12.753,5.76 1.918,-0.36 4.447,-1.504 5.523,-0.362 C -0.041,-1.02 -0.014,-0.345 0,0" /></g><g
           transform="translate(327.9658,198.0539)"
           id="g72"><path
             id="path74"
             style="fill:#e0c271;fill-opacity:1;fill-rule:nonzero;stroke:none"
             d="m 0,0 c -0.415,-1.31 -7.16,1.985 -12.861,-0.896 -1.627,-0.822 -3.554,-3.125 -7.407,-7.732 -3.608,-4.314 -3.908,-5.285 -5.779,-6.186 -3.514,-1.692 -8.707,-1.276 -10.256,1.383 -0.886,1.523 -0.301,3.299 0.814,6.675 1.312,3.975 2.148,6.51 4.477,8.059 2.824,1.878 4.162,-0.142 10.175,1.79 2.22,0.714 2.944,1.281 5.453,1.791 1.631,0.331 3.466,0.705 5.861,0.407 C -5.861,4.836 -3.424,3.126 -2.36,2.36 -0.902,1.311 0.171,0.539 0,0" /></g><g
           transform="translate(505.0273,194.9064)"
           id="g76"><path
             id="path78"
             style="fill:#e0c271;fill-opacity:1;fill-rule:nonzero;stroke:none"
             d="m 0,0 c 0.2,-1.171 0.279,-1.773 0.576,-2.389 0.358,-0.737 0.69,-1.004 0.576,-1.376 -0.134,-0.441 -0.696,-0.37 -2.22,-0.955 -1.221,-0.468 -1.722,-0.845 -2.278,-0.587 -0.274,0.127 -0.434,0.35 -0.537,0.521 -1.805,3.015 -1.599,7.312 -1.599,7.312 0.136,3.552 0.969,6.295 1.559,8.176 0.048,0.152 0.136,0.283 0.256,0.389 1.688,1.473 3.426,2.805 5.17,4.002 0.11,0.076 0.249,-0.038 0.201,-0.164 C 0.918,12.871 0.46,10.617 0.114,8.912 -0.071,7.998 -0.755,4.415 0,0 m -15.764,-8.343 c -0.135,-0.031 -0.517,-0.122 -0.902,0.048 -0.095,0.042 -0.197,0.104 -0.242,0.146 -0.422,0.398 0.803,2.365 2.143,4.882 0.545,1.023 0.911,1.765 1.628,3.063 0.341,0.617 0.69,1.23 1.178,1.981 0.058,0.088 0.11,0.169 0.183,0.279 1.285,1.933 1.927,2.9 2.112,2.828 0.251,-0.097 -0.547,-1.483 -0.503,-3.729 0,0 0.041,-2.084 0.979,-4.888 0.059,-0.178 0.115,-0.357 0.177,-0.533 0.194,-0.545 0.434,-1.117 0.586,-1.822 0.035,-0.161 0.074,-0.371 -0.038,-0.547 -0.086,-0.134 -0.224,-0.189 -0.371,-0.241 -0.626,-0.225 -0.935,-0.258 -0.935,-0.258 -0.502,-0.055 -0.986,-0.225 -1.482,-0.322 -1.254,-0.244 -1.88,-0.366 -2.111,-0.42 -0.795,-0.182 -1.607,-0.283 -2.402,-0.467 m -10.422,-9.104 c -2.119,-2.7 -2.881,-3.997 -3.438,-5.045 -0.134,-0.252 -0.508,-0.173 -0.538,0.11 -0.193,1.823 -0.667,3.226 -0.833,3.716 -0.612,1.801 -1.553,3.53 -2.609,5.012 0.73,0.007 1.392,0.025 1.953,0.057 1.488,0.087 2.982,-0.065 4.471,0 1.561,0.07 2.311,0.176 2.61,-0.248 0.565,-0.804 -0.994,-2.811 -1.616,-3.602 m -14.664,-18.42 c -0.513,-0.464 -1.32,-0.023 -1.218,0.662 0.18,1.229 0.255,2.688 0.227,4.551 -0.058,3.795 -0.094,6.116 -0.914,9.139 -0.597,2.201 -1.627,4.836 -2.933,7.133 -0.027,0.061 -0.125,0.312 -0.019,0.588 0.106,0.275 0.375,0.468 0.691,0.498 0.871,-0.047 1.748,-0.091 2.632,-0.132 0.886,-0.041 1.774,-0.079 2.647,-0.111 0.273,-0.18 0.542,-0.325 0.744,-0.443 3.294,-1.922 4.505,-6.326 5.027,-8.226 0.627,-2.279 0.463,-4.397 0.142,-6.114 -0.024,-0.128 -0.077,-0.24 -0.161,-0.338 -1.633,-1.912 -3.971,-4.598 -6.865,-7.207 M -79.34,-49.25 c -1.69,0.014 -2.637,1.917 -1.648,3.289 0.443,0.616 0.91,1.342 1.396,2.199 1.172,2.065 3.437,6.609 4.113,13.367 0.106,1.062 0.469,5.133 -0.457,10.283 -0.219,1.221 -0.462,2.561 -0.794,3.823 -0.289,1.091 0.353,2.203 1.44,2.505 0.22,0.06 0.439,0.123 0.658,0.187 1.486,0.437 3.14,0.635 4.987,0.813 0.266,-0.212 0.348,-0.511 0.451,-0.654 2.858,-3.959 4.881,-12.692 5.256,-17.023 0.475,-5.496 -0.841,-13.856 -4.914,-17.138 -0.174,-0.141 -0.459,-0.358 -0.74,-0.605 -0.315,-0.276 -0.705,-0.465 -1.12,-0.52 -3.038,-0.397 -5.934,-0.547 -8.628,-0.526 m -17.652,2.859 c -1.594,0.658 -3.273,1.139 -4.879,1.771 -1.173,0.461 -1.603,1.913 -0.825,2.905 1.353,1.727 3.289,2.943 4.871,4.408 5.322,4.929 6.2,12.434 6.668,16.438 0.033,0.288 0.061,0.572 0.084,0.854 0.063,0.772 0.614,1.394 1.351,1.626 1.293,0.408 2.655,1.063 4.159,1.687 0.322,0.134 0.647,0.26 0.974,0.379 0.997,0.365 2.093,-0.199 2.407,-1.213 0.392,-1.265 0.818,-2.669 1.105,-4.175 1.748,-9.183 -2.606,-17.421 -3.199,-18.51 -1.825,-3.345 -4.035,-5.53 -5.179,-7.057 -0.441,-0.588 -1.179,-0.868 -1.899,-0.717 -2.656,0.557 -4.607,1.179 -5.638,1.604 m 44.868,32.76 c 4.511,-3.829 5.473,-9.907 5.713,-11.426 0.513,-3.239 0.427,-9.244 -1.257,-13.367 -0.184,-0.45 -0.674,-1.597 -0.692,-2.583 -0.005,-0.258 -0.155,-0.494 -0.378,-0.624 -4.723,-2.74 -9.343,-4.346 -13.067,-5.336 -0.326,-0.087 -0.593,0.274 -0.413,0.558 1.042,1.646 1.677,3.567 2.164,5.095 2.825,8.856 0.781,16.622 -0.8,22.622 -0.463,1.758 -1.144,3.165 -2.388,5.525 -0.166,0.315 0.06,0.697 0.417,0.692 2.477,-0.031 5.305,-0.145 8.579,-0.312 0.775,-0.039 1.521,-0.334 2.113,-0.836 z m 76.372,39.164 c -0.833,0.676 -2.442,1.055 -4.596,0.621 -11.292,-2.275 -20.373,-8.82 -20.373,-8.82 0,0 -10.944,-7.887 -17.763,-19.006 -1.661,-2.708 -2.112,-3.974 -2.112,-3.974 -0.464,-1.303 -0.454,-1.855 -0.994,-2.485 -0.086,-0.1 -0.476,-0.51 -1.182,-0.846 -1.415,-0.67 -2.854,-0.441 -3.165,-0.396 -3.937,0.571 -42.711,2.934 -54.161,-1.242 -7.377,-2.692 -8.68,-2.972 -11.08,-3.458 -0.623,5.077 -2.533,9.624 -4.631,14.603 -2.278,5.407 -3.511,8.331 -6.668,11.32 -0.7,0.663 -8.078,7.439 -17.368,6.047 -1.927,-0.288 -5.483,-0.821 -7.753,-3.566 -1.822,-2.203 -1.203,-3.88 -2.946,-6.357 -1.762,-2.503 -4.048,-3.142 -8.064,-4.808 -9.479,-3.932 -8.233,-5.144 -12.871,-6.357 -5.699,-1.492 -10.568,-0.445 -17.678,1.085 -8.356,1.797 -10.842,3.944 -15.352,2.481 -0.495,-0.161 -4.736,-1.604 -7.133,-5.737 -2.791,-4.814 -1.292,-10.19 0,-14.577 4.538,-15.402 16.766,-23.697 17.988,-24.5 8.63,-5.676 16.938,-6.753 20.159,-7.134 4.386,-0.519 11.976,-1.415 20.469,1.551 4.155,1.451 7.284,3.28 12.871,3.566 4.458,0.228 8.264,-0.666 8.797,-0.795 2.058,-0.498 2.937,-0.947 5.32,-1.773 0,0 3.814,-1.322 10.164,-2.708 3.699,-0.808 34.216,-6.321 56.396,11.303 5.952,4.729 10.081,10.058 10.56,10.684 2.824,3.688 4.459,6.727 9.44,16.521 0.035,0.068 0.066,0.128 0.1,0.196 2.041,-0.419 5.802,0.507 7.637,0.996 0.912,0.242 3.264,0.885 7.08,2.235 2.737,0.969 6.54,2.412 10.807,4.473 0.281,0.135 1.139,0.587 2.857,1.49 3.916,2.06 5.048,2.724 5.591,4.1 0.137,0.349 0.595,1.512 0.124,1.987 C 13.84,3.134 10.726,0.655 5.649,-1.847 5.474,-1.934 5.3,-2.014 5.125,-2.098 c -0.222,1.371 -1.011,3.186 -1.24,5.64 -0.362,3.863 0.602,9.977 3.999,13.825 0.6,0.68 1.608,1.677 1.521,2.34 6.903,3.397 12.622,4.722 13.725,4.708 0.179,-0.002 1.486,-0.055 1.615,0.373 0.083,0.274 -0.357,0.632 -0.497,0.745" /></g></g></g><g
       id="g80"><g
         clip-path="url(#clipPath86)"
         id="g82"><path
           id="path88"
           style="fill:#fafafb;fill-opacity:1;fill-rule:nonzero;stroke:none"
           d="M 444.232,272.965 H 433.56 v -4.917 h 10.672 z m -3.451,6.021 1.964,1.603 3.198,-2.392 -1.266,-1.104 h -12.194 l -0.569,1.893 z m -7.22,-13.094 v -0.815 l -5.51,-0.579 v 11.701 l 5.51,-0.526 v -0.474 h 10.705 l 2.469,1.605 4.687,-3.024 -1.583,-1.262 v -7.257 l -5.607,-0.578 v 1.209 z m 2.881,22.507 6.556,-1.288 c -0.359,-0.44 -0.739,-0.869 -1.14,-1.289 1.626,-0.93 3.135,-1.701 4.529,-2.314 2.322,-1.035 4.929,-1.885 7.822,-2.551 l -3.832,-4.127 c -1.668,0.683 -4.012,2.041 -7.03,4.075 -1.056,0.737 -2.228,1.736 -3.516,2.998 -3.378,-2.805 -7.991,-5.145 -13.838,-7.021 l -1.584,1.736 c 5.51,2.524 9.521,5.784 12.033,9.781" /><g
           transform="translate(478.6895,288.6877)"
           id="g90"><path
             id="path92"
             style="fill:#fafafb;fill-opacity:1;fill-rule:nonzero;stroke:none"
             d="M 0,0 C 1.54,-0.456 2.977,-1.052 4.306,-1.788 L 1.71,-3.944 c -1.098,1.016 -2.248,1.84 -3.452,2.471 z M 2.406,-4.128 4.243,-2.683 7.314,-4.917 5.89,-6.021 h -7.536 c 0.316,-2.034 0.758,-4.058 1.329,-6.074 0.971,1.543 1.731,3.094 2.28,4.655 L 6.491,-9.098 C 5.31,-11.85 3.61,-14.399 1.394,-16.749 c 0.695,-1.56 1.297,-2.471 1.803,-2.733 0.338,0 0.845,1.095 1.521,3.286 l 1.869,-0.579 c -0.359,-0.753 -0.538,-1.428 -0.538,-2.025 0,-1.262 0.305,-2.243 0.918,-2.944 -0.38,-0.823 -0.834,-1.437 -1.363,-1.841 -0.422,-0.473 -1.128,-0.709 -2.122,-0.709 -0.843,0 -1.815,0.368 -2.913,1.104 -0.97,0.736 -1.879,1.796 -2.722,3.181 -2.028,-1.612 -4.297,-3.101 -6.81,-4.47 l -1.9,1.631 c 2.765,2.068 5.109,4.155 7.031,6.257 -1.204,2.945 -2.134,6.468 -2.788,10.57 h -9.468 v -2.918 h 3.293 l 2.122,1.525 4.181,-2.655 -1.299,-1.027 c -0.042,-4.785 -0.274,-7.685 -0.696,-8.703 -0.36,-0.981 -1.288,-1.472 -2.788,-1.472 h -2.596 c 0,1.579 -0.719,2.367 -2.154,2.367 l 0.094,1.578 c 0.803,-0.123 1.532,-0.185 2.186,-0.185 0.485,0 0.75,0.219 0.792,0.657 0.211,0.79 0.316,2.796 0.316,6.022 h -3.451 v -2.893 c 0,-2.576 -0.433,-4.697 -1.299,-6.362 -0.739,-1.684 -1.858,-3.217 -3.356,-4.601 l -2.028,1.157 c 1.12,3.031 1.678,6.371 1.678,10.016 v 11.281 l 5.005,-0.606 v -1.288 h 9.184 c -0.19,1.35 -0.349,2.734 -0.475,4.154 l 5.13,-0.579 c 0.063,-1.209 0.169,-2.401 0.317,-3.575 z" /></g><g
           transform="translate(492.5283,287.7668)"
           id="g94"><path
             id="path96"
             style="fill:#fafafb;fill-opacity:1;fill-rule:nonzero;stroke:none"
             d="M 0,0 5.099,-1.262 C 4.466,-2.733 3.811,-4.084 3.136,-5.311 H 7.791 V 0.658 L 13.364,0.08 v -5.391 h 5.574 l 1.773,1.394 3.04,-2.208 -1.425,-1.131 h -8.962 v -5.548 h 4.623 l 1.837,1.42 3.041,-2.262 -1.362,-1.103 h -8.139 v -5.837 h 6.619 l 1.869,1.445 3.007,-2.26 -1.329,-1.131 H -3.99 l -0.57,1.946 H 7.791 v 5.837 h -8.868 l -0.57,1.945 h 9.438 v 5.548 H 1.963 c -1.224,-1.929 -2.544,-3.515 -3.958,-4.76 l -2.313,1.079 C -2.175,-7.449 -0.739,-3.803 0,0" /></g><g
           transform="translate(520.1758,286.2424)"
           id="g98"><path
             id="path100"
             style="fill:#fafafb;fill-opacity:1;fill-rule:nonzero;stroke:none"
             d="M 0,0 3.451,-0.578 C 3.367,-1.735 3.239,-2.831 3.071,-3.865 H 4.084 V 2.551 L 8.423,2.13 v -5.916 l 1.235,0.789 1.235,-0.921 c 0.697,2.017 1.161,4.103 1.394,6.258 l 4.845,-0.684 c -0.359,-1.297 -0.823,-2.524 -1.394,-3.68 h 7.379 l 2.028,1.34 3.832,-2.655 -1.045,-0.842 v -7.125 c 0,-5.539 -0.487,-8.693 -1.457,-9.465 -0.613,-0.805 -1.805,-1.209 -3.579,-1.209 h -2.217 c 0,1.35 -0.971,2.191 -2.913,2.524 l 0.221,1.709 3.705,-0.342 c 0.74,0 1.162,0.157 1.268,0.473 0.442,1.332 0.664,2.936 0.664,4.811 v 8.835 h -0.316 c -0.38,-3.822 -1.404,-6.924 -3.072,-9.307 -1.52,-2.648 -4.233,-5.356 -8.139,-8.125 l -1.552,1.261 c 2.766,2.525 4.909,5.206 6.43,8.046 1.414,2.594 2.3,5.302 2.66,8.125 h -0.823 c -1.036,-5.242 -3.886,-9.536 -8.552,-12.884 l -1.456,1.079 c 3.23,3.523 5.372,7.458 6.427,11.805 h -0.538 c -1.119,-1.858 -2.502,-3.532 -4.148,-5.021 l -1.488,0.999 c 0.422,0.77 0.801,1.533 1.14,2.287 H 8.423 v -4.207 c 0.972,0.332 1.89,0.691 2.756,1.078 l 1.076,-1.735 c -1.098,-0.93 -2.375,-1.788 -3.832,-2.577 v -8.676 L 4.084,-22.27 v 7.152 c -1.013,-0.386 -2.079,-0.754 -3.197,-1.105 l -1.901,4.102 c 1.815,0.264 3.516,0.578 5.098,0.947 v 5.469 H 2.69 C 2.312,-7.406 1.783,-8.922 1.108,-10.254 l -1.964,0.816 C -0.286,-6.774 0,-3.628 0,0" /></g><g
           transform="translate(565.4619,288.5569)"
           id="g102"><path
             id="path104"
             style="fill:#fafafb;fill-opacity:1;fill-rule:nonzero;stroke:none"
             d="M 0,0 C 0.845,-0.352 2.196,-1.254 4.054,-2.709 L 0.317,-5.075 c -0.886,1.436 -1.847,2.594 -2.881,3.471 z m -7.536,-0.079 c 0.971,-0.404 2.533,-1.394 4.686,-2.972 l -3.863,-2.47 c -0.993,1.593 -2.091,2.881 -3.294,3.864 z m 6.016,-13.358 2.662,-0.289 1.456,1.788 H -9.278 L -9.88,-9.86 H 3.77 l 2.565,1.315 4.148,-3.182 -2.407,-0.658 -4.085,-2.734 h 6.238 l 1.964,1.525 3.199,-2.392 -1.425,-1.183 H 3.737 v -4.575 c 0,-1.875 -1.214,-2.814 -3.641,-2.814 h -2.692 c 0,1.491 -1.657,2.235 -4.972,2.235 l 0.158,1.841 c 1.646,-0.088 3.241,-0.132 4.782,-0.132 0.738,0 1.108,0.245 1.108,0.736 v 2.709 h -11.844 l -0.633,2.05 H -1.52 Z M 6.588,0.499 11.782,-0.79 C 10.389,-2.823 8.847,-4.479 7.158,-5.759 h 2.533 l 1.806,1.841 4.085,-2.813 -1.837,-0.737 -2.882,-3.418 -2.628,0.948 1.425,1.866 H -9.373 c -0.316,-0.684 -0.677,-1.376 -1.077,-2.077 l -4.308,1.919 c 1.373,1.332 2.429,2.76 3.168,4.286 l 3.231,-0.789 C -8.402,-5.084 -8.466,-5.426 -8.55,-5.759 H 3.168 c 1.667,1.998 2.808,4.084 3.42,6.258" /></g></g></g><g
       id="g106"><g
         clip-path="url(#clipPath112)"
         id="g108"><g
           transform="translate(456.6562,388.1496)"
           id="g114"><path
             id="path116"
             style="fill:#28416c;fill-opacity:1;fill-rule:nonzero;stroke:none"
             d="m 0,0 c 0.049,-1.152 0.654,-2.627 1.703,-3.69 2.025,-2.054 5.06,-1.923 6.388,-1.846 4.176,0.242 6.701,2.438 12.49,6.671 5.889,4.306 8.833,6.459 10.93,7.524 6.818,3.459 13.286,4.038 16.607,4.116 2.605,0.061 8.801,0.143 15.614,-2.839 7.325,-3.206 15.062,-9.821 16.182,-10.788 1.613,-1.393 4.272,-3.81 8.375,-4.684 2.88,-0.613 5.147,-0.184 5.962,0 0.983,0.222 4.077,3.029 5.143,5.049 1.87,3.546 -3.826,9.414 -9.828,13.971 C 75.899,23.864 58.497,22.316 46.983,21.292 33.525,20.094 25.692,16.514 11.923,10.22 7.534,8.214 -0.188,4.394 0,0" /></g><g
           transform="translate(500.1133,319.8708)"
           id="g118"><path
             id="path120"
             style="fill:#28416c;fill-opacity:1;fill-rule:nonzero;stroke:none"
             d="m 0,0 c -0.81,0.606 -1.942,1.54 -3.122,2.839 -2.515,2.769 -4.267,6.127 -5.536,10.93 -1.846,6.981 -1.564,12.816 -1.136,20.439 0.511,9.086 1.409,8.848 1.136,14.621 -0.102,2.14 -0.365,5.148 -0.852,13.059 -0.299,4.868 -0.37,6.505 0.568,8.516 1.544,3.312 4.543,4.896 7.097,6.246 4.418,2.334 8.818,2.954 12.207,2.981 C 10.146,75.102 9.863,70.511 9.511,65.862 7.724,42.332 4.347,20.332 0,0" /></g><g
           transform="translate(394.5562,420.4602)"
           id="g122"><path
             id="path124"
             style="fill:#28416c;fill-opacity:1;fill-rule:nonzero;stroke:none"
             d="M 0,0 C 1.788,-1.345 4.292,-3.619 6.001,-7.092 8.482,-12.136 7.904,-16.898 7.503,-20.865 6.415,-31.635 6.691,-42.5 6.268,-53.317 6.056,-58.711 5.93,-63.595 7.462,-69.772 c 1.278,-5.158 2.225,-8.756 5.486,-11.164 5.214,-3.848 13.694,-2.692 18.506,1.629 2.269,2.038 3.164,4.294 4.319,7.31 1.556,4.06 1.82,7.131 1.984,19.574 0.176,13.272 -0.05,15.334 -1.319,17.973 -2.605,5.419 -4.383,7.632 -4.383,7.632 -1.869,2.327 -3.258,3.276 -3.802,5.622 -0.109,0.471 -0.711,3.271 0.803,5.619 1.088,1.687 2.467,1.939 4.793,3.295 2.866,1.672 3.679,3.095 6.141,5.392 2.204,2.057 5.645,4.734 10.933,7.189 0.837,-2.312 1.952,-5.649 2.995,-9.735 2.842,-11.134 11.212,-43.929 -6.29,-65.9 -6.775,-8.505 -20.774,-19.59 -34.747,-16.325 -9.37,2.189 -14.769,9.905 -17.374,13.629 -12.558,17.951 -7.508,40.808 -4.943,52.421 C -7.014,-14.649 -3.161,-5.974 0,0" /></g><g
           transform="translate(293.0068,421.7029)"
           id="g126"><path
             id="path128"
             style="fill:#28416c;fill-opacity:1;fill-rule:nonzero;stroke:none"
             d="m 0,0 c 1.905,-1.452 4.641,-3.925 6.742,-7.705 2.484,-4.47 2.916,-8.673 3.13,-13.241 0.472,-10.12 -0.484,-14.408 -0.958,-25.347 -0.201,-4.628 0.025,-10.206 0.476,-21.361 0.375,-9.269 0.731,-12.672 3.331,-14.49 3.88,-2.713 10.045,-0.002 12.215,0.952 6.817,2.998 10.295,8.567 12.141,11.612 5.998,9.893 5.54,19.792 5.297,25.039 -0.278,6.002 -0.609,11.511 -4.575,16.613 -1.591,2.048 -4.627,5.952 -9.389,6.741 -4.066,0.673 -6.485,-1.408 -11.556,0 -1.772,0.492 -4.242,1.177 -4.575,2.648 -0.662,2.924 7.186,8.667 14.205,9.872 12.88,2.209 29.356,-9.769 34.429,-25.28 7.246,-22.163 -12.083,-41.459 -14.446,-43.819 -3.913,-3.906 -16.337,-16.309 -31.78,-13.482 -1.721,0.314 -11.897,2.359 -17.576,11.075 -7.067,10.847 0.709,19.937 0,48.633 -0.065,2.619 -0.276,8.462 0.482,16.372 C -1.784,-8.652 -0.757,-3.387 0,0" /></g></g></g><g
       id="g130"><g
         clip-path="url(#clipPath136)"
         id="g132"><g
           transform="translate(296.7593,373.2507)"
           id="g138"><path
             id="path140"
             style="fill:#28416c;fill-opacity:1;fill-rule:nonzero;stroke:none"
             d="m 0,0 v -21.285 c -0.694,-14.957 3.618,-21.86 12.921,-20.71 18.945,3.065 29.459,17.833 31.527,44.296 -1.381,20.324 -9.303,31.254 -23.774,32.791 -2.762,0 -5.686,-0.575 -8.787,-1.726 -1.381,-0.387 -2.414,-0.575 -3.101,-0.575 -2.415,0.377 -3.965,1.915 -4.651,4.603 3.1,7.28 11.54,11.693 25.324,13.231 C 54.268,48.324 68.045,32.018 70.807,1.726 68.392,-32.026 50.989,-51.01 18.606,-55.226 c -2.067,0 -6.032,0.188 -11.887,0.575 -1.728,0.378 -3.101,0.575 -4.135,0.575 -5.516,0.378 -9.48,0.576 -11.887,0.576 -1.728,0 -4.829,-0.198 -9.303,-0.576 -1.381,-0.386 -2.415,-0.575 -3.101,-0.575 -3.101,-0.387 -5.168,-0.575 -6.202,-0.575 -5.863,0 -8.786,2.49 -8.786,7.478 0,3.83 2.067,6.904 6.202,9.205 4.134,2.301 6.202,5.555 6.202,9.78 v 43.721 c 0,5.366 -2.415,9.204 -7.236,11.505 -3.101,1.528 -4.651,3.452 -4.651,5.753 0,1.914 3.1,4.602 9.303,8.054 0.686,0.377 1.72,0.952 3.101,1.726 0.686,0.763 1.203,1.15 1.55,1.15 1.72,0.764 3.27,1.915 4.652,3.452 2.753,2.678 5.685,4.027 8.785,4.027 6.542,0 9.821,-6.14 9.821,-18.409 0,-3.074 -0.178,-8.054 -0.517,-14.957 C 0.169,9.969 0,4.216 0,0" /></g><g
           transform="translate(438.6123,362.4304)"
           id="g142"><path
             id="path144"
             style="fill:#28416c;fill-opacity:1;fill-rule:nonzero;stroke:none"
             d="m 0,0 v 17.513 c 0,7.909 -2.537,13.744 -7.613,17.513 -2.713,1.88 -4.061,3.761 -4.061,5.649 0,1.881 2.197,4.326 6.599,7.345 1.014,0.75 2.196,1.695 3.553,2.824 1.015,0.75 1.689,1.316 2.03,1.695 4.734,5.27 8.287,7.53 10.658,6.779 5.75,0.371 8.288,-4.519 7.613,-14.688 V -5.649 c -0.681,-25.988 -14.211,-39.166 -40.604,-39.546 -28.763,0 -43.141,12.429 -43.141,37.286 v 31.637 c 0,4.89 -2.205,8.659 -6.598,11.298 -3.046,1.5 -4.568,3.575 -4.568,6.214 0,2.26 2.362,4.705 7.105,7.344 1.016,0.751 1.856,1.316 2.538,1.695 0.674,0.371 1.69,0.936 3.045,1.695 1.016,1.13 1.856,1.88 2.538,2.26 5.409,4.14 9.302,5.835 11.674,5.084 6.09,0.751 9.135,-4.899 9.135,-16.948 0,-3.769 -0.174,-10.548 -0.507,-20.338 -0.341,-12.057 -0.508,-21.467 -0.508,-28.246 0.674,-17.328 7.273,-26.367 19.795,-27.118 C -6.432,-33.711 0.675,-22.598 0,0" /></g><g
           transform="translate(519.4727,381.0749)"
           id="g146"><path
             id="path148"
             style="fill:#28416c;fill-opacity:1;fill-rule:nonzero;stroke:none"
             d="m 0,0 c -0.682,-5.649 -0.99,-11.198 -0.99,-16.847 -0.342,-11.678 2.761,-11.625 5.472,-13.126 2.364,-1.889 1.492,-8.107 1.492,-10.367 -3.413,-14.807 -8.306,-22.723 -19.9,-23.213 -8.462,0 -13.03,6.965 -13.704,20.903 0,4.14 0.167,9.79 0.508,16.948 0.333,6.78 0.507,11.864 0.507,15.254 0,3.389 -0.174,7.344 -0.507,11.864 v 5.648 c -0.341,3.011 1.236,6.549 6.311,9.188 3.72,1.881 8.482,3.37 12.883,3.37 4.394,0 8.919,-4.102 8.919,-8.622 m -17.622,23.626 c 6.091,0 14.378,1.13 24.869,3.39 7.44,1.501 12.69,2.259 15.735,2.259 7.106,-1.129 11.673,-10.547 13.704,-28.246 0,-4.899 -2.371,-7.724 -7.106,-8.475 -1.356,0 -4.401,1.881 -9.136,5.65 -11.166,9.789 -23.522,14.688 -37.05,14.688 -12.182,0 -24.031,-4.713 -35.529,-14.123 -4.402,-3.39 -7.447,-5.084 -9.135,-5.084 -4.743,0 -3.062,0.266 -3.062,5.165 0.268,3.338 0.671,6.108 1.018,8.136 0.706,4.127 1.096,6.329 2.288,9.154 0.555,1.314 1.541,3.607 3.559,6.102 0.838,1.035 2.747,3.396 5.213,4.704 4.17,2.212 8.849,0.84 11.792,0.07 0,0 10.931,-3.39 22.84,-3.39" /></g><g
           transform="translate(299.3135,373.133)"
           id="g150"><path
             id="path152"
             style="fill:#ffffff;fill-opacity:1;fill-rule:nonzero;stroke:none"
             d="m 0,0 v -18.792 c -0.615,-13.205 3.203,-19.3 11.439,-18.284 16.772,2.706 26.081,15.744 27.912,39.108 -1.223,17.943 -8.237,27.593 -21.048,28.95 -2.446,0 -5.033,-0.508 -7.779,-1.524 C 9.301,29.117 8.386,28.95 7.778,28.95 c -2.137,0.334 -3.51,1.691 -4.117,4.064 2.745,6.427 10.216,10.324 22.42,11.681 21.963,-2.031 34.16,-16.427 36.605,-43.171 -2.138,-29.799 -17.544,-46.56 -46.214,-50.282 -1.83,0 -5.34,0.167 -10.524,0.508 -1.53,0.333 -2.745,0.508 -3.66,0.508 -4.883,0.333 -8.393,0.508 -10.524,0.508 -1.53,0 -4.276,-0.175 -8.236,-0.508 -1.223,-0.341 -2.138,-0.508 -2.746,-0.508 -2.745,-0.341 -4.575,-0.508 -5.49,-0.508 -5.191,0 -7.779,2.198 -7.779,6.603 0,3.381 1.83,6.094 5.491,8.126 3.66,2.032 5.491,4.904 5.491,8.634 v 38.601 c 0,4.737 -2.138,8.126 -6.407,10.157 -2.745,1.349 -4.117,3.048 -4.117,5.079 0,1.691 2.745,4.063 8.236,7.111 0.607,0.333 1.522,0.841 2.745,1.524 0.608,0.674 1.065,1.015 1.373,1.015 1.523,0.675 2.895,1.691 4.118,3.048 2.438,2.365 5.033,3.555 7.778,3.555 5.791,0 8.694,-5.42 8.694,-16.253 0,-2.713 -0.157,-7.11 -0.457,-13.205 C 0.15,8.801 0,3.722 0,0" /></g><g
           transform="translate(434.9551,364.4992)"
           id="g154"><path
             id="path156"
             style="fill:#ffffff;fill-opacity:1;fill-rule:nonzero;stroke:none"
             d="m 0,0 v 15.745 c 0,7.11 -2.287,12.356 -6.863,15.744 -2.446,1.691 -3.66,3.381 -3.66,5.079 0,1.691 1.98,3.889 5.948,6.603 0.915,0.675 1.98,1.524 3.203,2.539 0.915,0.675 1.522,1.183 1.83,1.524 4.268,4.738 7.471,6.769 9.608,6.095 5.184,0.333 7.472,-4.063 6.864,-13.205 V -5.079 c -0.615,-23.363 -12.812,-35.212 -36.605,-35.553 -25.931,0 -38.893,11.174 -38.893,33.521 v 28.443 c 0,4.396 -1.987,7.785 -5.948,10.157 -2.746,1.349 -4.118,3.214 -4.118,5.587 0,2.032 2.13,4.23 6.405,6.603 0.916,0.675 1.674,1.182 2.289,1.524 0.607,0.333 1.523,0.841 2.745,1.523 0.915,1.016 1.673,1.691 2.288,2.032 4.876,3.721 8.386,5.245 10.524,4.571 5.49,0.674 8.236,-4.405 8.236,-15.237 0,-3.389 -0.158,-9.484 -0.458,-18.284 -0.307,-10.841 -0.458,-19.3 -0.458,-25.395 0.608,-15.578 6.557,-23.705 17.846,-24.379 C -5.798,-30.307 0.608,-20.316 0,0" /></g><g
           transform="translate(493.6084,382.7834)"
           id="g158"><path
             id="path160"
             style="fill:#ffffff;fill-opacity:1;fill-rule:nonzero;stroke:none"
             d="m 0,0 v 5.079 c -0.308,2.706 1.83,5.245 6.405,7.618 3.354,1.691 7.014,2.54 10.982,2.54 3.961,0 5.948,-2.032 5.948,-6.095 0,-1.357 -0.157,-3.73 -0.457,-7.111 V 0.508 c -0.615,-5.079 -0.915,-10.158 -0.915,-15.237 -0.308,-10.5 0.758,-16.427 3.202,-17.776 2.131,-1.699 3.203,-3.556 3.203,-5.587 -3.053,-13.206 -8.543,-19.983 -16.472,-20.316 -7.628,0 -11.747,6.261 -12.354,18.792 0,3.722 0.15,8.801 0.458,15.237 0.3,6.095 0.457,10.666 0.457,13.713 C 0.457,-7.619 0.3,-4.063 0,0 m 10.981,29.966 c 5.491,0 12.962,1.015 22.42,3.047 6.706,1.349 11.44,2.031 14.185,2.031 6.406,-1.015 10.524,-9.482 12.354,-25.394 0,-4.404 -2.137,-6.944 -6.406,-7.619 -1.222,0 -3.968,1.691 -8.236,5.079 -10.067,8.801 -21.205,13.205 -33.402,13.205 -10.981,0 -21.663,-4.237 -32.029,-12.697 -3.969,-3.047 -6.714,-4.571 -8.236,-4.571 -4.276,0 -6.406,2.199 -6.406,6.603 1.83,15.912 6.249,24.379 13.269,25.394 2.131,0 6.099,-0.682 11.897,-2.031 8.843,-2.032 15.707,-3.047 20.59,-3.047" /></g></g></g><g
       id="g162"><g
         clip-path="url(#clipPath168)"
         id="g164"><g
           transform="translate(392.3872,395.5954)"
           id="g170"><path
             id="path172"
             style="fill:#486594;fill-opacity:1;fill-rule:nonzero;stroke:none"
             d="m 0,0 c -0.889,-9.806 -1.403,-19.644 -1.519,-29.49 -0.097,-8.285 0.204,-16.972 4.492,-24.319 0.972,-1.666 3.566,-0.158 2.59,1.515 -4.186,7.171 -4.185,15.74 -4.068,23.797 C 1.633,-18.982 2.141,-9.477 3,0 3.174,1.922 0.173,1.91 0,0" /></g></g></g><g
       id="g174"><g
         clip-path="url(#clipPath180)"
         id="g176"><g
           transform="translate(422.4355,182.592)"
           id="g182"><path
             id="path184"
             style="fill:#e0c271;fill-opacity:1;fill-rule:nonzero;stroke:none"
             d="m 0,0 c -1.659,-1.535 0.593,-5.25 1.485,-9.939 1.748,-9.182 -2.605,-17.421 -3.198,-18.509 -2.876,-5.274 -6.726,-7.67 -5.828,-9.14 0.66,-1.08 3.328,-0.755 5.028,-0.115 1.174,0.442 3.084,1.486 5.484,5.713 1.172,2.064 3.436,6.608 4.113,13.367 C 7.19,-17.561 7.553,-13.49 6.627,-8.34 5.992,-4.81 5.177,-0.276 2.514,0.457 1.781,0.659 0.686,0.635 0,0" /></g><g
           transform="translate(435.0039,183.8488)"
           id="g186"><path
             id="path188"
             style="fill:#e0c271;fill-opacity:1;fill-rule:nonzero;stroke:none"
             d="m 0,0 c -0.359,-1.073 0.534,-2.26 0.8,-2.627 2.857,-3.961 4.88,-12.692 5.255,-17.024 0.475,-5.495 -0.841,-13.856 -4.912,-17.138 -0.487,-0.391 -1.818,-1.359 -1.6,-1.942 0.272,-0.731 2.875,-0.701 4.684,0 3.454,1.338 4.824,5.441 5.712,8.226 2.827,8.858 0.781,16.622 -0.799,22.622 -0.533,2.02 -1.342,3.557 -2.971,6.626 C 5.268,0.444 4.689,1.311 3.655,1.6 2.237,1.997 0.396,1.185 0,0" /></g><g
           transform="translate(450.7705,184.5344)"
           id="g190"><path
             id="path192"
             style="fill:#e0c271;fill-opacity:1;fill-rule:nonzero;stroke:none"
             d="m 0,0 c -0.264,-1.118 1.567,-2.316 2.742,-3.313 4.511,-3.829 5.472,-9.907 5.712,-11.425 0.513,-3.24 0.428,-9.244 -1.257,-13.367 -0.268,-0.66 -1.212,-2.82 -0.343,-3.771 0.418,-0.457 1.095,-0.461 1.257,-0.457 1.901,0.048 3.231,2.953 3.657,3.885 0.909,1.986 1.317,4.132 1.256,8.111 -0.057,3.796 -0.093,6.117 -0.914,9.141 C 10.706,-6.02 6.905,1.566 2.742,1.485 1.604,1.464 0.203,0.863 0,0" /></g><g
           transform="translate(464.0234,183.1633)"
           id="g194"><path
             id="path196"
             style="fill:#e0c271;fill-opacity:1;fill-rule:nonzero;stroke:none"
             d="m 0,0 c 0.238,-1.063 1.36,-1.602 1.942,-1.941 3.294,-1.923 4.505,-6.327 5.028,-8.227 1.477,-5.377 -1.441,-9.862 -0.457,-10.282 0.661,-0.283 2.137,1.482 2.97,2.97 2.579,4.606 0.812,9.807 0.456,10.854 C 8.11,-1.239 3.362,3.554 1.257,2.742 0.378,2.404 -0.229,1.019 0,0" /></g><g
           transform="translate(501.498,208.4133)"
           id="g198"><path
             id="path200"
             style="fill:#e0c271;fill-opacity:1;fill-rule:nonzero;stroke:none"
             d="m 0,0 c 0.989,-0.639 -1.687,-4.458 -1.942,-11.082 -0.096,-2.484 -0.224,-5.797 1.599,-7.313 0.24,-0.199 0.76,-0.572 0.8,-1.142 0.074,-1.067 -1.554,-2.506 -2.856,-2.4 -2.332,0.192 -4.213,5.383 -4.228,9.484 -0.008,2.248 0.546,4.065 1.257,6.397 0.613,2.013 1.107,2.905 1.714,3.657 C -2.629,-1.126 -0.705,0.455 0,0" /></g><g
           transform="translate(514.5225,215.2688)"
           id="g202"><path
             id="path204"
             style="fill:#e0c271;fill-opacity:1;fill-rule:nonzero;stroke:none"
             d="m 0,0 c 0.323,-0.651 -0.831,-1.772 -1.485,-2.514 -3.396,-3.847 -4.361,-9.961 -3.998,-13.824 0.365,-3.911 2.153,-6.196 0.799,-7.655 -0.594,-0.641 -1.615,-0.929 -2.399,-0.686 -0.289,0.09 -1.562,0.567 -2.285,4.799 -0.755,4.414 -0.071,7.997 0.114,8.911 0.743,3.668 2.004,9.885 5.941,11.198 C -2.089,0.637 -0.328,0.662 0,0" /></g></g></g><g
       id="g206"><g
         clip-path="url(#clipPath212)"
         id="g208"><g
           transform="translate(580.6768,394.9196)"
           id="g214"><path
             id="path216"
             style="fill:none;stroke:#caa268;stroke-width:1;stroke-linecap:butt;stroke-linejoin:miter;stroke-miterlimit:10;stroke-dasharray:none;stroke-opacity:1"
             d="m 0,0 c 0,-24.177 -19.6,-43.777 -43.776,-43.777 -24.178,0 -43.778,19.6 -43.778,43.777 0,24.177 19.6,43.777 43.778,43.777 C -19.6,43.777 0,24.177 0,0 Z" /></g><g
           transform="translate(603.8398,396.092)"
           id="g218"><path
             id="path220"
             style="fill:none;stroke:#caa268;stroke-width:1;stroke-linecap:butt;stroke-linejoin:miter;stroke-miterlimit:10;stroke-dasharray:none;stroke-opacity:1"
             d="m 0,0 c 0,-35.74 -28.973,-64.713 -64.714,-64.713 -35.74,0 -64.713,28.973 -64.713,64.713 0,35.74 28.973,64.714 64.713,64.714 C -28.973,64.714 0,35.74 0,0 Z" /></g><g
           transform="translate(483.3164,191.7717)"
           id="g222"><path
             id="path224"
             style="fill:none;stroke:#caa268;stroke-width:1;stroke-linecap:butt;stroke-linejoin:miter;stroke-miterlimit:10;stroke-dasharray:none;stroke-opacity:1"
             d="m 0,0 c 0,-27.156 -22.015,-49.17 -49.17,-49.17 -27.156,0 -49.17,22.014 -49.17,49.17 0,27.155 22.014,49.17 49.17,49.17 C -22.015,49.17 0,27.155 0,0 Z" /></g><g
           transform="translate(573.4082,175.5451)"
           id="g226"><path
             id="path228"
             style="fill:none;stroke:#caa268;stroke-width:1;stroke-linecap:butt;stroke-linejoin:miter;stroke-miterlimit:10;stroke-dasharray:none;stroke-opacity:1"
             d="m 0,0 c 0,-24.003 -19.458,-43.46 -43.46,-43.46 -24.002,0 -43.46,19.457 -43.46,43.46 0,24.002 19.458,43.46 43.46,43.46 C -19.458,43.46 0,24.002 0,0 Z" /></g><g
           transform="translate(539.2783,239.1984)"
           id="g230"><path
             id="path232"
             style="fill:none;stroke:#caa268;stroke-width:1;stroke-linecap:butt;stroke-linejoin:miter;stroke-miterlimit:10;stroke-dasharray:none;stroke-opacity:1"
             d="m 0,0 c 0,-29.784 -24.145,-53.929 -53.929,-53.929 -29.783,0 -53.927,24.145 -53.927,53.929 0,29.783 24.144,53.928 53.927,53.928 C -24.145,53.928 0,29.783 0,0 Z" /></g><g
           transform="translate(541.1475,99.1418)"
           id="g234"><path
             id="path236"
             style="fill:none;stroke:#caa268;stroke-width:1;stroke-linecap:butt;stroke-linejoin:miter;stroke-miterlimit:10;stroke-dasharray:none;stroke-opacity:1"
             d="m 0,0 c 0,-48.53 -39.341,-87.871 -87.871,-87.871 -48.53,0 -87.871,39.341 -87.871,87.871 0,48.53 39.341,87.871 87.871,87.871 C -39.341,87.871 0,48.53 0,0 Z" /></g></g></g><g
       id="g238"><g
         clip-path="url(#clipPath244)"
         id="g240"><g
           transform="translate(276.0063,400.8991)"
           id="g246"><path
             id="path248"
             style="fill:#486594;fill-opacity:1;fill-rule:nonzero;stroke:none"
             d="m 0,0 c 3.703,1.7 6.958,4.139 10.06,6.752 1.266,1.066 2.719,2.376 4.422,2.63 1.022,0.153 2.592,-0.126 3.016,-1.231 0.288,-0.754 1.01,-1.282 1.845,-1.048 0.721,0.202 1.34,1.082 1.047,1.845 -0.705,1.84 -2.257,3.047 -4.205,3.361 -2.131,0.344 -4.142,-0.372 -5.888,-1.58 C 8.381,9.404 6.699,7.764 4.824,6.382 2.835,4.917 0.732,3.622 -1.514,2.59 -2.256,2.25 -2.425,1.192 -2.053,0.538 -1.62,-0.223 -0.732,-0.336 0,0" /></g><g
           transform="translate(467.7842,405.5949)"
           id="g250"><path
             id="path252"
             style="fill:#486594;fill-opacity:1;fill-rule:nonzero;stroke:none"
             d="m 0,0 c 0.44,1.174 0.922,2.353 1.54,3.446 0.657,1.16 1.551,1.59 2.834,1.833 2.647,0.501 5.283,0.512 7.904,-0.12 4.905,-1.182 9.597,-3.672 14.779,-3.109 1.898,0.206 1.92,3.208 0,3 C 21.217,4.416 15.945,7.885 10.252,8.555 7.592,8.869 4.224,8.71 1.743,7.613 -0.909,6.439 -1.946,3.319 -2.894,0.797 -3.572,-1.012 -0.674,-1.794 0,0" /></g><g
           transform="translate(496.2393,347.9206)"
           id="g254"><path
             id="path256"
             style="fill:#486594;fill-opacity:1;fill-rule:nonzero;stroke:none"
             d="m 0,0 c -0.094,-4.332 0.632,-8.795 2.387,-12.773 1.609,-3.646 4.909,-6.542 9.097,-5.909 0.802,0.121 1.245,1.13 1.048,1.845 -0.236,0.858 -1.042,1.169 -1.845,1.047 -3.045,-0.459 -5.089,2.805 -5.976,5.216 C 3.465,-7.188 2.922,-3.6 3,0 3.042,1.932 0.042,1.931 0,0" /></g></g></g></g></svg>